<?xml version="1.0" encoding="UTF-8"?>
<!DOCTYPE svg PUBLIC "-//W3C//DTD SVG 1.1//EN" "http://www.w3.org/Graphics/SVG/1.1/DTD/svg11.dtd">
<svg width="159mm" height="90mm" viewBox="0 0 15900 9000" version="1.1" baseProfile="tiny" xmlns="http://www.w3.org/2000/svg" stroke-width="28.222" stroke-linejoin="round" xml:space="preserve">
 <path fill="rgb(255,255,255)" stroke="none" d="M 7970,8989 L -4,8989 -4,0 15944,0 15944,8989 7970,8989 Z"/>
 <path fill="none" stroke="rgb(238,238,238)" stroke-linejoin="round" d="M 7256,4494 L 7256,4494 Z"/>
 <path fill="none" stroke="rgb(238,238,238)" stroke-linejoin="round" d="M 7256,3639 L 6515,4066 6515,4920 7256,5348 7995,4920 7995,4066 7256,3639 Z"/>
 <path fill="none" stroke="rgb(238,238,238)" stroke-linejoin="round" d="M 7256,2784 L 5775,3639 5775,5348 7256,6203 8735,5348 8735,3639 7256,2784 Z"/>
 <path fill="none" stroke="rgb(238,238,238)" stroke-linejoin="round" d="M 7256,1929 L 5034,3211 5034,5775 7255,7058 9476,5775 9476,3211 7256,1929 Z"/>
 <path fill="none" stroke="rgb(179,179,179)" stroke-linejoin="round" d="M 7256,1929 L 5034,3211 5034,5775 7255,7058 9476,5775 9476,3211 7256,1929 Z"/>
 <path fill="none" stroke="rgb(179,179,179)" stroke-linejoin="round" d="M 7256,4494 L 7256,1929"/>
 <path fill="none" stroke="rgb(179,179,179)" stroke-linejoin="round" d="M 7256,4494 L 5034,3211"/>
 <path fill="none" stroke="rgb(179,179,179)" stroke-linejoin="round" d="M 7256,4494 L 5034,5775"/>
 <path fill="none" stroke="rgb(179,179,179)" stroke-linejoin="round" d="M 7256,4494 L 7255,7058"/>
 <path fill="none" stroke="rgb(179,179,179)" stroke-linejoin="round" d="M 7256,4494 L 9476,5775"/>
 <path fill="none" stroke="rgb(179,179,179)" stroke-linejoin="round" d="M 7256,4494 L 9476,3211"/>
 <path fill="none" stroke="rgb(179,179,179)" stroke-linejoin="round" d="M 7256,4494 L 7256,1929"/>
 <path fill="none" stroke="rgb(255,0,0)" stroke-width="80" stroke-linejoin="round" d="M 7256,3639 L 5034,3211 5034,5775 7256,6203 8735,5348 8735,3639 7256,3639 Z"/>
 <path fill="none" stroke="rgb(255,153,0)" stroke-width="80" stroke-linejoin="round" d="M 7256,2784 L 5034,3211 5404,5561 7256,6203 9106,5561 9106,3425 7256,2784 Z"/>
 <path fill="none" stroke="rgb(0,204,0)" stroke-width="80" stroke-linejoin="round" d="M 7256,1929 L 5775,3639 5775,5348 7256,5348 9106,5561 9476,3211 7256,1929 Z"/>
 <text class="TextShape"><tspan class="TextParagraph" font-family="Liberation Sans" font-size="388px" font-weight="400"><tspan class="TextPosition" x="4338" y="1264"><tspan fill="rgb(0,0,0)" stroke="none">Societal sustainability awareness</tspan></tspan></tspan></text>
 <text class="TextShape"><tspan class="TextParagraph" font-family="Liberation Sans" font-size="388px" font-weight="400"><tspan class="TextPosition" x="333" y="2833"><tspan fill="rgb(0,0,0)" stroke="none">Economic centralisation</tspan></tspan></tspan></text>
 <text class="TextShape"><tspan class="TextParagraph" font-family="Liberation Sans" font-size="388px" font-weight="400"><tspan class="TextPosition" x="2782" y="6425"><tspan fill="rgb(0,0,0)" stroke="none">City sizes</tspan></tspan></tspan></text>
 <text class="TextShape"><tspan class="TextParagraph" font-family="Liberation Sans" font-size="388px" font-weight="400"><tspan class="TextPosition" x="5047" y="7996"><tspan fill="rgb(0,0,0)" stroke="none">Travel demand per capita</tspan></tspan></tspan></text>
 <text class="TextShape"><tspan class="TextParagraph" font-family="Liberation Sans" font-size="388px" font-weight="400"><tspan class="TextPosition" x="9974" y="6425"><tspan fill="rgb(0,0,0)" stroke="none">Total travel demand</tspan></tspan></tspan></text>
 <text class="TextShape"><tspan class="TextParagraph" font-family="Liberation Sans" font-size="388px" font-weight="400"><tspan class="TextPosition" x="9974" y="2833"><tspan fill="rgb(0,0,0)" stroke="none">Urban density</tspan></tspan></tspan></text>
 <text class="TextShape"><tspan class="TextParagraph" font-family="Liberation Sans" font-size="282px" font-weight="400"><tspan class="TextPosition" x="7356" y="4600"><tspan fill="rgb(0,0,0)" stroke="none">0</tspan></tspan></tspan></text>
 <text class="TextShape"><tspan class="TextParagraph" font-family="Liberation Sans" font-size="282px" font-weight="400"><tspan class="TextPosition" x="7356" y="3745"><tspan fill="rgb(0,0,0)" stroke="none">1</tspan></tspan></tspan></text>
 <text class="TextShape"><tspan class="TextParagraph" font-family="Liberation Sans" font-size="282px" font-weight="400"><tspan class="TextPosition" x="7356" y="2890"><tspan fill="rgb(0,0,0)" stroke="none">2</tspan></tspan></tspan></text>
 <text class="TextShape"><tspan class="TextParagraph" font-family="Liberation Sans" font-size="282px" font-weight="400"><tspan class="TextPosition" x="7356" y="2035"><tspan fill="rgb(0,0,0)" stroke="none">3</tspan></tspan></tspan></text>
 <path fill="none" stroke="rgb(255,0,0)" stroke-width="80" stroke-linejoin="round" d="M 13857,3939 L 14657,3939"/>
 <path fill="none" stroke="rgb(255,153,0)" stroke-width="80" stroke-linejoin="round" d="M 13857,4494 L 14657,4494"/>
 <path fill="none" stroke="rgb(0,204,0)" stroke-width="80" stroke-linejoin="round" d="M 13857,5048 L 14657,5048"/>
 <text class="TextShape"><tspan class="TextParagraph" font-family="Liberation Sans" font-size="388px" font-weight="400"><tspan class="TextPosition" x="14757" y="4075"><tspan fill="rgb(0,0,0)" stroke="none">2017</tspan></tspan></tspan></text>
 <text class="TextShape"><tspan class="TextParagraph" font-family="Liberation Sans" font-size="388px" font-weight="400"><tspan class="TextPosition" x="14757" y="4629"><tspan fill="rgb(0,0,0)" stroke="none">2050</tspan></tspan></tspan></text>
 <text class="TextShape"><tspan class="TextParagraph" font-family="Liberation Sans" font-size="388px" font-weight="400"><tspan class="TextPosition" x="14757" y="5184"><tspan fill="rgb(0,0,0)" stroke="none">2100</tspan></tspan></tspan></text>
</svg>