<?xml version="1.0" encoding="UTF-8"?>
<!DOCTYPE svg PUBLIC "-//W3C//DTD SVG 1.1//EN" "http://www.w3.org/Graphics/SVG/1.1/DTD/svg11.dtd">
<svg width="160mm" height="90mm" viewBox="0 0 16000 9000" version="1.1" baseProfile="tiny" xmlns="http://www.w3.org/2000/svg" stroke-width="28.222" stroke-linejoin="round" xml:space="preserve">
 <path fill="rgb(255,255,255)" stroke="none" d="M 7996,9018 L -4,9018 -4,19 15995,19 15995,9018 7996,9018 Z"/>
 <path fill="none" stroke="rgb(238,238,238)" stroke-linejoin="round" d="M 6552,4715 L 6552,4715 Z"/>
 <path fill="none" stroke="rgb(238,238,238)" stroke-linejoin="round" d="M 6552,2957 L 5177,3619 4837,5106 5789,6300 7315,6300 8266,5106 7927,3619 6552,2957 Z"/>
 <path fill="none" stroke="rgb(238,238,238)" stroke-linejoin="round" d="M 6552,1199 L 3802,2523 3123,5498 5026,7884 8077,7884 9980,5498 9301,2523 6552,1199 Z"/>
 <path fill="none" stroke="rgb(238,238,238)" stroke-linejoin="round" d="M 6552,3837 L 5864,4168 5695,4911 6170,5507 6934,5507 7409,4911 7240,4168 6552,3837 Z"/>
 <path fill="none" stroke="rgb(238,238,238)" stroke-linejoin="round" d="M 6552,2078 L 4489,3071 3980,5302 5407,7092 7697,7092 9123,5302 8614,3071 6552,2078 Z"/>
 <path fill="none" stroke="rgb(179,179,179)" stroke-linejoin="round" d="M 6552,1199 L 3802,2523 3123,5498 5026,7884 8077,7884 9980,5498 9301,2523 6552,1199 Z"/>
 <path fill="none" stroke="rgb(179,179,179)" stroke-linejoin="round" d="M 6552,4715 L 6552,1199"/>
 <path fill="none" stroke="rgb(179,179,179)" stroke-linejoin="round" d="M 6552,4715 L 3802,2523"/>
 <path fill="none" stroke="rgb(179,179,179)" stroke-linejoin="round" d="M 6552,4715 L 3123,5498"/>
 <path fill="none" stroke="rgb(179,179,179)" stroke-linejoin="round" d="M 6552,4715 L 5026,7884"/>
 <path fill="none" stroke="rgb(179,179,179)" stroke-linejoin="round" d="M 6552,4715 L 8077,7884"/>
 <path fill="none" stroke="rgb(179,179,179)" stroke-linejoin="round" d="M 6552,4715 L 9980,5498"/>
 <path fill="none" stroke="rgb(179,179,179)" stroke-linejoin="round" d="M 6552,4715 L 9301,2523"/>
 <path fill="none" stroke="rgb(179,179,179)" stroke-linejoin="round" d="M 6552,4715 L 6552,1199"/>
 <path fill="none" stroke="rgb(255,0,0)" stroke-width="80" stroke-linejoin="round" d="M 6552,3213 L 6082,4341 4354,5217 6291,5257 7922,7559 6552,4715 7081,4294 6552,3213 Z"/>
 <path fill="none" stroke="rgb(255,153,0)" stroke-width="80" stroke-linejoin="round" d="M 6552,3777 L 6087,4345 4111,5272 6009,5843 7706,7112 6827,4778 6992,4365 6552,3777 Z"/>
 <path fill="none" stroke="rgb(0,204,0)" stroke-width="80" stroke-linejoin="round" d="M 6552,4400 L 5811,4125 4311,5227 6053,5751 7300,6269 8232,5099 7046,4322 6552,4400 Z"/>
 <text class="TextShape"><tspan class="TextParagraph" font-family="Liberation Sans" font-size="353px" font-weight="400"><tspan class="TextPosition" x="5902" y="533"><tspan fill="rgb(0,0,0)" stroke="none">Walking</tspan></tspan></tspan></text>
 <text class="TextShape"><tspan class="TextParagraph" font-family="Liberation Sans" font-size="353px" font-weight="400"><tspan class="TextPosition" x="2324" y="2074"><tspan fill="rgb(0,0,0)" stroke="none">Biking</tspan></tspan></tspan></text>
 <text class="TextShape"><tspan class="TextParagraph" font-family="Liberation Sans" font-size="353px" font-weight="400"><tspan class="TextPosition" x="1926" y="5748"><tspan fill="rgb(0,0,0)" stroke="none">Bus</tspan></tspan></tspan></text>
 <text class="TextShape"><tspan class="TextParagraph" font-family="Liberation Sans" font-size="353px" font-weight="400"><tspan class="TextPosition" x="3960" y="8736"><tspan fill="rgb(0,0,0)" stroke="none">Train</tspan></tspan></tspan></text>
 <text class="TextShape"><tspan class="TextParagraph" font-family="Liberation Sans" font-size="353px" font-weight="400"><tspan class="TextPosition" x="8327" y="8736"><tspan fill="rgb(0,0,0)" stroke="none">Car</tspan></tspan></tspan></text>
 <text class="TextShape"><tspan class="TextParagraph" font-family="Liberation Sans" font-size="353px" font-weight="400"><tspan class="TextPosition" x="10542" y="5748"><tspan fill="rgb(0,0,0)" stroke="none">HSTrain</tspan></tspan></tspan></text>
 <text class="TextShape"><tspan class="TextParagraph" font-family="Liberation Sans" font-size="353px" font-weight="400"><tspan class="TextPosition" x="9751" y="2074"><tspan fill="rgb(0,0,0)" stroke="none">Air</tspan></tspan></tspan></text>
 <text class="TextShape"><tspan class="TextParagraph" font-family="Liberation Sans" font-size="282px" font-weight="400"><tspan class="TextPosition" x="6652" y="4822"><tspan fill="rgb(0,0,0)" stroke="none">0</tspan></tspan></tspan></text>
 <text class="TextShape"><tspan class="TextParagraph" font-family="Liberation Sans" font-size="282px" font-weight="400"><tspan class="TextPosition" x="6652" y="3063"><tspan fill="rgb(0,0,0)" stroke="none">20</tspan></tspan></tspan></text>
 <text class="TextShape"><tspan class="TextParagraph" font-family="Liberation Sans" font-size="282px" font-weight="400"><tspan class="TextPosition" x="6652" y="1305"><tspan fill="rgb(0,0,0)" stroke="none">40</tspan></tspan></tspan></text>
 <path fill="none" stroke="rgb(255,0,0)" stroke-width="80" stroke-linejoin="round" d="M 13920,3993 L 14720,3993"/>
 <path fill="none" stroke="rgb(255,153,0)" stroke-width="80" stroke-linejoin="round" d="M 13920,4518 L 14720,4518"/>
 <path fill="none" stroke="rgb(0,204,0)" stroke-width="80" stroke-linejoin="round" d="M 13920,5042 L 14720,5042"/>
 <text class="TextShape"><tspan class="TextParagraph" font-family="Liberation Sans" font-size="353px" font-weight="400"><tspan class="TextPosition" x="14820" y="4114"><tspan fill="rgb(0,0,0)" stroke="none">2010</tspan></tspan></tspan></text>
 <text class="TextShape"><tspan class="TextParagraph" font-family="Liberation Sans" font-size="353px" font-weight="400"><tspan class="TextPosition" x="14820" y="4638"><tspan fill="rgb(0,0,0)" stroke="none">2050</tspan></tspan></tspan></text>
 <text class="TextShape"><tspan class="TextParagraph" font-family="Liberation Sans" font-size="353px" font-weight="400"><tspan class="TextPosition" x="14820" y="5163"><tspan fill="rgb(0,0,0)" stroke="none">2100</tspan></tspan></tspan></text>
</svg>