<?xml version="1.0" encoding="UTF-8"?>
<!DOCTYPE svg PUBLIC "-//W3C//DTD SVG 1.1//EN" "http://www.w3.org/Graphics/SVG/1.1/DTD/svg11.dtd">
<svg width="160mm" height="90mm" viewBox="0 0 16000 9000" version="1.1" baseProfile="tiny" xmlns="http://www.w3.org/2000/svg" stroke-width="28.222" stroke-linejoin="round" xml:space="preserve">
 <path fill="rgb(255,255,255)" stroke="none" d="M 7996,9009 L -4,9009 -4,10 15995,10 15995,9009 7996,9009 Z"/>
 <path fill="none" stroke="rgb(238,238,238)" stroke-linejoin="round" d="M 6540,4509 L 6540,4509 Z"/>
 <path fill="none" stroke="rgb(238,238,238)" stroke-linejoin="round" d="M 6540,3413 L 5444,4509 6540,5605 7637,4509 6540,3413 Z"/>
 <path fill="none" stroke="rgb(238,238,238)" stroke-linejoin="round" d="M 6540,2316 L 4347,4509 6540,6701 8732,4509 6540,2316 Z"/>
 <path fill="none" stroke="rgb(238,238,238)" stroke-linejoin="round" d="M 6540,1220 L 3251,4509 6540,7798 9829,4509 6540,1220 Z"/>
 <path fill="none" stroke="rgb(238,238,238)" stroke-linejoin="round" d="M 6540,3961 L 5992,4509 6540,5056 7088,4509 6540,3961 Z"/>
 <path fill="none" stroke="rgb(238,238,238)" stroke-linejoin="round" d="M 6540,2864 L 4895,4509 6540,6153 8184,4509 6540,2864 Z"/>
 <path fill="none" stroke="rgb(238,238,238)" stroke-linejoin="round" d="M 6540,1768 L 3799,4509 6540,7249 9280,4509 6540,1768 Z"/>
 <path fill="none" stroke="rgb(179,179,179)" stroke-linejoin="round" d="M 6540,1220 L 3251,4509 6540,7798 9829,4509 6540,1220 Z"/>
 <path fill="none" stroke="rgb(179,179,179)" stroke-linejoin="round" d="M 6540,4509 L 6540,1220"/>
 <path fill="none" stroke="rgb(179,179,179)" stroke-linejoin="round" d="M 6540,4509 L 3251,4509"/>
 <path fill="none" stroke="rgb(179,179,179)" stroke-linejoin="round" d="M 6540,4509 L 6540,7798"/>
 <path fill="none" stroke="rgb(179,179,179)" stroke-linejoin="round" d="M 6540,4509 L 9829,4509"/>
 <path fill="none" stroke="rgb(179,179,179)" stroke-linejoin="round" d="M 6540,4509 L 6540,1220"/>
 <path fill="none" stroke="rgb(255,0,0)" stroke-width="80" stroke-linejoin="round" d="M 6540,1768 L 5444,4509 6540,7249 7637,4509 6540,1768 Z"/>
 <path fill="none" stroke="rgb(255,153,0)" stroke-width="80" stroke-linejoin="round" d="M 6540,2864 L 4347,4509 6540,7798 9280,4509 6540,2864 Z"/>
 <path fill="none" stroke="rgb(0,204,0)" stroke-width="80" stroke-linejoin="round" d="M 6540,3413 L 3251,4509 6540,7798 9829,4509 6540,3413 Z"/>
 <text class="TextShape"><tspan class="TextParagraph" font-family="Liberation Sans" font-size="388px" font-weight="400"><tspan class="TextPosition" x="5209" y="554"><tspan fill="rgb(0,0,0)" stroke="none">Consumer cost</tspan></tspan></tspan></text>
 <text class="TextShape"><tspan class="TextParagraph" font-family="Liberation Sans" font-size="388px" font-weight="400"><tspan class="TextPosition" x="437" y="4645"><tspan fill="rgb(0,0,0)" stroke="none">Accessibility</tspan></tspan></tspan></text>
 <text class="TextShape"><tspan class="TextParagraph" font-family="Liberation Sans" font-size="388px" font-weight="400"><tspan class="TextPosition" x="5965" y="8737"><tspan fill="rgb(0,0,0)" stroke="none">Safety</tspan></tspan></tspan></text>
 <text class="TextShape"><tspan class="TextParagraph" font-family="Liberation Sans" font-size="388px" font-weight="400"><tspan class="TextPosition" x="10405" y="4645"><tspan fill="rgb(0,0,0)" stroke="none">Infr. investments</tspan></tspan></tspan></text>
 <text class="TextShape"><tspan class="TextParagraph" font-family="Liberation Sans" font-size="282px" font-weight="400"><tspan class="TextPosition" x="6640" y="4615"><tspan fill="rgb(0,0,0)" stroke="none">0</tspan></tspan></tspan></text>
 <text class="TextShape"><tspan class="TextParagraph" font-family="Liberation Sans" font-size="282px" font-weight="400"><tspan class="TextPosition" x="6640" y="3519"><tspan fill="rgb(0,0,0)" stroke="none">1</tspan></tspan></tspan></text>
 <text class="TextShape"><tspan class="TextParagraph" font-family="Liberation Sans" font-size="282px" font-weight="400"><tspan class="TextPosition" x="6640" y="2422"><tspan fill="rgb(0,0,0)" stroke="none">2</tspan></tspan></tspan></text>
 <text class="TextShape"><tspan class="TextParagraph" font-family="Liberation Sans" font-size="282px" font-weight="400"><tspan class="TextPosition" x="6640" y="1326"><tspan fill="rgb(0,0,0)" stroke="none">3</tspan></tspan></tspan></text>
 <path fill="none" stroke="rgb(255,0,0)" stroke-width="80" stroke-linejoin="round" d="M 13908,3954 L 14708,3954"/>
 <path fill="none" stroke="rgb(255,153,0)" stroke-width="80" stroke-linejoin="round" d="M 13908,4509 L 14708,4509"/>
 <path fill="none" stroke="rgb(0,204,0)" stroke-width="80" stroke-linejoin="round" d="M 13908,5063 L 14708,5063"/>
 <text class="TextShape"><tspan class="TextParagraph" font-family="Liberation Sans" font-size="388px" font-weight="400"><tspan class="TextPosition" x="14808" y="4090"><tspan fill="rgb(0,0,0)" stroke="none">2017</tspan></tspan></tspan></text>
 <text class="TextShape"><tspan class="TextParagraph" font-family="Liberation Sans" font-size="388px" font-weight="400"><tspan class="TextPosition" x="14808" y="4644"><tspan fill="rgb(0,0,0)" stroke="none">2050</tspan></tspan></tspan></text>
 <text class="TextShape"><tspan class="TextParagraph" font-family="Liberation Sans" font-size="388px" font-weight="400"><tspan class="TextPosition" x="14808" y="5199"><tspan fill="rgb(0,0,0)" stroke="none">2100</tspan></tspan></tspan></text>
</svg>