<?xml version="1.0" encoding="UTF-8"?>
<!DOCTYPE svg PUBLIC "-//W3C//DTD SVG 1.1//EN" "http://www.w3.org/Graphics/SVG/1.1/DTD/svg11.dtd">
<svg width="160mm" height="90mm" viewBox="0 0 16000 9000" version="1.1" baseProfile="tiny" xmlns="http://www.w3.org/2000/svg" stroke-width="28.222" stroke-linejoin="round" xml:space="preserve">
 <path fill="rgb(255,255,255)" stroke="none" d="M 7996,9015 L -4,9015 -4,16 15995,16 15995,9015 7996,9015 Z"/>
 <path fill="none" stroke="rgb(238,238,238)" stroke-linejoin="round" d="M 6540,4711 L 6540,4711 Z"/>
 <path fill="none" stroke="rgb(238,238,238)" stroke-linejoin="round" d="M 6540,2969 L 5177,3625 4840,5098 5783,6281 7296,6281 8238,5098 7902,3625 6540,2969 Z"/>
 <path fill="none" stroke="rgb(238,238,238)" stroke-linejoin="round" d="M 6540,1226 L 3814,2538 3141,5486 5027,7851 8051,7851 9937,5486 9264,2538 6540,1226 Z"/>
 <path fill="none" stroke="rgb(238,238,238)" stroke-linejoin="round" d="M 6540,3840 L 5858,4168 5690,4904 6161,5496 6918,5496 7389,4904 7221,4168 6540,3840 Z"/>
 <path fill="none" stroke="rgb(238,238,238)" stroke-linejoin="round" d="M 6540,2097 L 4495,3081 3991,5292 5405,7066 7674,7066 9087,5292 8583,3081 6540,2097 Z"/>
 <path fill="none" stroke="rgb(179,179,179)" stroke-linejoin="round" d="M 6540,1226 L 3814,2538 3141,5486 5027,7851 8051,7851 9937,5486 9264,2538 6540,1226 Z"/>
 <path fill="none" stroke="rgb(179,179,179)" stroke-linejoin="round" d="M 6540,4711 L 6540,1226"/>
 <path fill="none" stroke="rgb(179,179,179)" stroke-linejoin="round" d="M 6540,4711 L 3814,2538"/>
 <path fill="none" stroke="rgb(179,179,179)" stroke-linejoin="round" d="M 6540,4711 L 3141,5486"/>
 <path fill="none" stroke="rgb(179,179,179)" stroke-linejoin="round" d="M 6540,4711 L 5027,7851"/>
 <path fill="none" stroke="rgb(179,179,179)" stroke-linejoin="round" d="M 6540,4711 L 8051,7851"/>
 <path fill="none" stroke="rgb(179,179,179)" stroke-linejoin="round" d="M 6540,4711 L 9937,5486"/>
 <path fill="none" stroke="rgb(179,179,179)" stroke-linejoin="round" d="M 6540,4711 L 9264,2538"/>
 <path fill="none" stroke="rgb(179,179,179)" stroke-linejoin="round" d="M 6540,4711 L 6540,1226"/>
 <path fill="none" stroke="rgb(255,0,0)" stroke-width="80" stroke-linejoin="round" d="M 6540,3222 L 6074,4340 4361,5208 6281,5247 7897,7529 6540,4711 7064,4294 6540,3222 Z"/>
 <path fill="none" stroke="rgb(255,153,0)" stroke-width="80" stroke-linejoin="round" d="M 6540,3781 L 6079,4344 4121,5263 6001,5828 7683,7086 6812,4773 6976,4363 6540,3781 Z"/>
 <path fill="none" stroke="rgb(0,204,0)" stroke-width="80" stroke-linejoin="round" d="M 6540,4398 L 5805,4126 4318,5217 6045,5737 7281,6250 8204,5091 7029,4321 6540,4398 Z"/>
 <text class="TextShape"><tspan class="TextParagraph" font-family="Liberation Sans" font-size="388px" font-weight="400"><tspan class="TextPosition" x="5859" y="560"><tspan fill="rgb(0,0,0)" stroke="none">Walking</tspan></tspan></tspan></text>
 <text class="TextShape"><tspan class="TextParagraph" font-family="Liberation Sans" font-size="388px" font-weight="400"><tspan class="TextPosition" x="2275" y="2089"><tspan fill="rgb(0,0,0)" stroke="none">Biking</tspan></tspan></tspan></text>
 <text class="TextShape"><tspan class="TextParagraph" font-family="Liberation Sans" font-size="388px" font-weight="400"><tspan class="TextPosition" x="1884" y="5751"><tspan fill="rgb(0,0,0)" stroke="none">Bus</tspan></tspan></tspan></text>
 <text class="TextShape"><tspan class="TextParagraph" font-family="Liberation Sans" font-size="388px" font-weight="400"><tspan class="TextPosition" x="3930" y="8733"><tspan fill="rgb(0,0,0)" stroke="none">Train</tspan></tspan></tspan></text>
 <text class="TextShape"><tspan class="TextParagraph" font-family="Liberation Sans" font-size="388px" font-weight="400"><tspan class="TextPosition" x="8301" y="8733"><tspan fill="rgb(0,0,0)" stroke="none">Car</tspan></tspan></tspan></text>
 <text class="TextShape"><tspan class="TextParagraph" font-family="Liberation Sans" font-size="388px" font-weight="400"><tspan class="TextPosition" x="10499" y="5751"><tspan fill="rgb(0,0,0)" stroke="none">HSTrain</tspan></tspan></tspan></text>
 <text class="TextShape"><tspan class="TextParagraph" font-family="Liberation Sans" font-size="388px" font-weight="400"><tspan class="TextPosition" x="9714" y="2089"><tspan fill="rgb(0,0,0)" stroke="none">Air</tspan></tspan></tspan></text>
 <text class="TextShape"><tspan class="TextParagraph" font-family="Liberation Sans" font-size="282px" font-weight="400"><tspan class="TextPosition" x="6640" y="4818"><tspan fill="rgb(0,0,0)" stroke="none">0</tspan></tspan></tspan></text>
 <text class="TextShape"><tspan class="TextParagraph" font-family="Liberation Sans" font-size="282px" font-weight="400"><tspan class="TextPosition" x="6640" y="3075"><tspan fill="rgb(0,0,0)" stroke="none">20</tspan></tspan></tspan></text>
 <text class="TextShape"><tspan class="TextParagraph" font-family="Liberation Sans" font-size="282px" font-weight="400"><tspan class="TextPosition" x="6640" y="1332"><tspan fill="rgb(0,0,0)" stroke="none">40</tspan></tspan></tspan></text>
 <path fill="none" stroke="rgb(255,0,0)" stroke-width="80" stroke-linejoin="round" d="M 13908,3960 L 14708,3960"/>
 <path fill="none" stroke="rgb(255,153,0)" stroke-width="80" stroke-linejoin="round" d="M 13908,4515 L 14708,4515"/>
 <path fill="none" stroke="rgb(0,204,0)" stroke-width="80" stroke-linejoin="round" d="M 13908,5069 L 14708,5069"/>
 <text class="TextShape"><tspan class="TextParagraph" font-family="Liberation Sans" font-size="388px" font-weight="400"><tspan class="TextPosition" x="14808" y="4096"><tspan fill="rgb(0,0,0)" stroke="none">2010</tspan></tspan></tspan></text>
 <text class="TextShape"><tspan class="TextParagraph" font-family="Liberation Sans" font-size="388px" font-weight="400"><tspan class="TextPosition" x="14808" y="4650"><tspan fill="rgb(0,0,0)" stroke="none">2050</tspan></tspan></tspan></text>
 <text class="TextShape"><tspan class="TextParagraph" font-family="Liberation Sans" font-size="388px" font-weight="400"><tspan class="TextPosition" x="14808" y="5205"><tspan fill="rgb(0,0,0)" stroke="none">2100</tspan></tspan></tspan></text>
</svg>